<svg width="470" height="470" viewBox="0 0 470 470" fill="none" xmlns="http://www.w3.org/2000/svg">
<g clip-path="url(#clip0_102_180)">
<path d="M467.586 343.271C470.183 340.322 471.658 327.634 460.074 326.668H71.6712C32.1528 326.668 0 358.818 0 398.34C0 437.852 32.1528 470 71.6712 470H460.074C473.772 468.456 470.144 456.221 467.488 453.291C434.055 416.338 434.093 381.387 467.586 343.271ZM439.456 449.999H71.6712C43.1805 449.999 20.0028 426.825 20.0028 398.34C20.0028 369.854 43.1805 346.669 71.6712 346.669H439.729C416.572 381.377 416.474 416.006 439.456 449.999Z" fill="black"/>
<path d="M9.92563 306.664H398.328C437.846 306.664 470 274.515 470 235.003C470 195.483 437.847 163.332 398.328 163.332H181.045V143.332H460.074C473.772 141.787 470.144 129.553 467.488 126.623C434.055 89.6693 434.094 54.7176 467.586 16.6025C470.183 13.654 471.658 0.963962 460.074 -0.000976562H71.6712C32.1528 -1.73788e-05 0 32.1509 0 71.6711C0 111.184 32.1528 143.333 71.6712 143.333H84.4475V163.333H9.92563C-1.65843 164.298 -0.183204 176.986 2.41427 179.935C35.907 218.051 35.9454 253.003 2.5121 289.956C-0.143878 292.886 -3.77247 305.12 9.92563 306.664ZM71.6712 123.332C43.1805 123.332 20.0028 100.158 20.0028 71.6711C20.0028 43.1853 43.1805 20.0018 71.6712 20.0018H439.729C416.572 54.7089 416.474 89.3374 439.456 123.333H181.045V71.6664C181.045 66.1395 176.571 61.6659 171.044 61.6659H94.4489C88.9202 61.6659 84.4475 66.1395 84.4475 71.6664V123.332H71.6712V123.332ZM161.042 81.6668V206.629L138.919 189.295C137.102 187.878 134.924 187.166 132.746 187.166C130.568 187.166 128.39 187.878 126.573 189.295L104.45 206.629V81.6668H161.042ZM84.4475 183.333V227.166C83.8681 235.87 90.4884 244.392 100.621 235.037L132.746 209.871L164.87 235.037C175.394 243.566 181.85 235.539 181.045 227.166V183.333H398.328C426.819 183.333 449.996 206.517 449.996 235.003C449.996 263.489 426.819 286.664 398.328 286.664H30.5442C53.5272 252.669 53.4284 218.04 30.2709 183.332H84.4475V183.333Z" fill="black"/>
</g>
<defs>
<clipPath id="clip0_102_180">
<rect width="470" height="470" fill="white"/>
</clipPath>
</defs>
</svg>
