<svg width="513" height="513" viewBox="0 0 513 513" fill="none" xmlns="http://www.w3.org/2000/svg">
<g clip-path="url(#clip0_102_203)">
<path d="M469.334 119.467H384.001C369.887 119.467 358.401 107.981 358.401 93.867V51.2C358.401 46.49 354.587 42.667 349.868 42.667C345.149 42.667 341.335 46.49 341.335 51.2V93.867C341.335 117.393 360.475 136.534 384.002 136.534H460.802V448.735L441.235 429.168C437.898 425.832 432.505 425.832 429.169 429.168L384.002 474.335L364.435 454.768C361.099 451.431 355.705 451.431 352.369 454.768L332.802 474.335L304.702 446.235C301.366 442.898 295.972 442.898 292.636 446.235L264.536 474.335L253.501 463.3C250.164 459.963 244.771 459.963 241.435 463.3L213.335 491.4L185.235 463.3C181.898 459.963 176.505 459.963 173.169 463.3L145.069 491.4L99.902 446.233C96.565 442.896 91.172 442.896 87.836 446.233L51.202 482.867V42.667C51.202 28.553 62.688 17.067 76.802 17.067H346.336L429.168 99.9C432.505 103.237 437.898 103.237 441.234 99.9C444.57 96.564 444.57 91.17 441.234 87.834L355.901 2.5C354.305 0.896 352.138 0 349.868 0H76.801C53.275 0 34.134 19.14 34.134 42.667V503.467C34.134 506.914 36.208 510.029 39.399 511.352C40.457 511.787 41.566 512 42.667 512C44.886 512 47.07 511.13 48.7 509.5L93.867 464.333L139.034 509.5C142.371 512.837 147.764 512.837 151.1 509.5L179.2 481.4L207.3 509.5C210.637 512.837 216.03 512.837 219.366 509.5L247.466 481.4L258.5 492.434C261.837 495.77 267.23 495.77 270.566 492.434L298.666 464.334L326.766 492.434C330.103 495.77 335.496 495.77 338.832 492.434L358.399 472.867L377.966 492.434C381.303 495.77 386.696 495.77 390.032 492.434L435.199 447.267L463.299 475.367C465.748 477.816 469.409 478.55 472.6 477.219C475.791 475.896 477.865 472.782 477.865 469.334V128C477.868 123.29 474.053 119.467 469.334 119.467Z" fill="black"/>
<path d="M128.001 221.867H281.601C286.32 221.867 290.134 218.044 290.134 213.334C290.134 208.624 286.32 204.801 281.601 204.801H128.001C123.282 204.801 119.468 208.624 119.468 213.334C119.468 218.044 123.282 221.867 128.001 221.867Z" fill="black"/>
<path d="M128.001 153.6H213.334C218.053 153.6 221.867 149.777 221.867 145.067C221.867 140.357 218.053 136.534 213.334 136.534H128.001C123.282 136.534 119.468 140.357 119.468 145.067C119.468 149.777 123.282 153.6 128.001 153.6Z" fill="black"/>
<path d="M298.668 273.067H349.868C354.587 273.067 358.401 269.244 358.401 264.534C358.401 259.824 354.587 256.001 349.868 256.001H298.668C293.949 256.001 290.135 259.824 290.135 264.534C290.134 269.244 293.949 273.067 298.668 273.067Z" fill="black"/>
<path d="M204.801 315.733C204.801 311.023 200.987 307.2 196.268 307.2H128.001C123.282 307.2 119.468 311.023 119.468 315.733C119.468 320.443 123.282 324.266 128.001 324.266H196.268C200.987 324.267 204.801 320.444 204.801 315.733Z" fill="black"/>
<path d="M128.001 358.4C123.282 358.4 119.468 362.223 119.468 366.933C119.468 371.643 123.282 375.466 128.001 375.466H179.201C183.92 375.466 187.734 371.643 187.734 366.933C187.734 362.223 183.92 358.4 179.201 358.4H128.001Z" fill="black"/>
<path d="M213.334 375.467H298.667C303.386 375.467 307.2 371.644 307.2 366.934C307.2 362.224 303.386 358.401 298.667 358.401H213.334C208.615 358.401 204.801 362.224 204.801 366.934C204.801 371.644 208.615 375.467 213.334 375.467Z" fill="black"/>
<path d="M384.001 204.8H315.734C311.015 204.8 307.201 208.623 307.201 213.333C307.201 218.043 311.015 221.866 315.734 221.866H384.001C388.72 221.866 392.534 218.043 392.534 213.333C392.534 208.623 388.72 204.8 384.001 204.8Z" fill="black"/>
<path d="M332.801 375.467H384.001C388.72 375.467 392.534 371.644 392.534 366.934C392.534 362.224 388.72 358.401 384.001 358.401H332.801C328.082 358.401 324.268 362.224 324.268 366.934C324.268 371.644 328.082 375.467 332.801 375.467Z" fill="black"/>
<path d="M375.468 315.733C375.468 311.023 371.654 307.2 366.935 307.2H230.401C225.682 307.2 221.868 311.023 221.868 315.733C221.868 320.443 225.682 324.266 230.401 324.266H366.934C371.653 324.267 375.468 320.444 375.468 315.733Z" fill="black"/>
<path d="M230.401 256C225.682 256 221.868 259.823 221.868 264.533C221.868 269.243 225.682 273.066 230.401 273.066H264.534C269.253 273.066 273.067 269.243 273.067 264.533C273.067 259.823 269.253 256 264.534 256H230.401Z" fill="black"/>
<path d="M128.001 273.067H196.268C200.987 273.067 204.801 269.244 204.801 264.534C204.801 259.824 200.987 256.001 196.268 256.001H128.001C123.282 256.001 119.468 259.824 119.468 264.534C119.468 269.244 123.282 273.067 128.001 273.067Z" fill="black"/>
</g>
<defs>
<clipPath id="clip0_102_203">
<rect width="512.002" height="512.002" fill="white"/>
</clipPath>
</defs>
</svg>
