<svg width="452" height="452" viewBox="0 0 452 452" fill="none" xmlns="http://www.w3.org/2000/svg">
<g clip-path="url(#clip0_102_135)">
<path d="M451.102 83.8539L357.446 367.73C356.275 371.282 353.785 374.169 350.434 375.858C348.443 376.861 346.292 377.368 344.128 377.368C342.651 377.368 341.169 377.132 339.728 376.656L316.301 368.928C311.58 367.371 309.016 362.282 310.573 357.562C312.13 352.841 317.225 350.277 321.939 351.834L341.595 358.318L432.766 81.9799L254.237 23.0789L228.905 99.8659C227.347 104.587 222.253 107.15 217.539 105.593C212.818 104.036 210.254 98.9469 211.811 94.2259L238.387 13.6689C240.815 6.32189 248.762 2.31689 256.107 4.74089L442.177 66.1299C445.73 67.2999 448.618 69.7909 450.307 73.1429C451.995 76.4949 452.277 80.2989 451.102 83.8539ZM266.66 75.7539C267.597 76.0629 268.547 76.2099 269.482 76.2099C273.259 76.2099 276.779 73.8119 278.027 70.0269L280.711 61.8929C282.269 57.1729 279.704 52.0839 274.984 50.5259C270.266 48.9689 265.173 51.5319 263.617 56.2529L260.933 64.3869C259.376 69.1079 261.94 74.1969 266.66 75.7539ZM317.808 311.37L315.124 319.504C313.566 324.224 316.131 329.314 320.852 330.871C321.788 331.18 322.738 331.327 323.673 331.327C327.451 331.327 330.97 328.929 332.218 325.144L334.902 317.01C336.46 312.29 333.895 307.2 329.174 305.643C324.46 304.088 319.365 306.648 317.808 311.37ZM254.475 153.195C257.069 145.334 262.571 138.953 269.967 135.225C277.365 131.497 285.767 130.873 293.629 133.467C303.332 136.668 308.604 142.346 311.656 149.051C318.1 145.478 325.714 144.052 335.421 147.255C351.651 152.611 360.502 170.175 355.149 186.407C347.084 210.849 317.138 225.935 288.179 240.524C286.881 241.178 285.498 241.488 284.137 241.488C280.846 241.488 277.675 239.676 276.093 236.536C261.5 207.578 246.411 177.632 254.475 153.195ZM288.124 220.381C311.082 208.674 332.924 196.318 338.055 180.769C340.3 173.962 336.588 166.595 329.781 164.349C324.294 162.538 320.739 163.054 312.919 170.922C310.516 173.34 306.953 174.194 303.716 173.125C300.479 172.057 298.122 169.252 297.63 165.879C296.026 154.899 293.475 152.37 287.99 150.561C286.653 150.12 285.278 149.901 283.91 149.901C281.904 149.901 279.912 150.371 278.067 151.3C274.963 152.863 272.656 155.539 271.569 158.834C266.438 174.381 276.64 197.31 288.124 220.381ZM219.371 215.799V303.575C219.371 308.546 223.4 312.575 228.371 312.575C233.342 312.575 237.371 308.546 237.371 303.575V215.799C237.371 184.267 231.604 157.777 220.232 137.065C209.664 117.817 194.226 103.958 175.566 96.9539L115.515 69.8699C112.337 68.4369 108.62 68.9679 105.971 71.2289C103.322 73.4909 102.215 77.0799 103.132 80.4409L108.137 98.7959C77.212 110.32 48.678 134.756 27.057 168.442C26.126 169.892 25.631 171.58 25.631 173.303V228.991C25.631 233.962 29.66 237.991 34.631 237.991H69.477C69.778 237.991 70.078 237.976 70.376 237.946C79.907 236.989 95.417 231.961 97.667 209.706C100.69 208.526 103.927 207.914 107.213 207.914C121.687 207.914 133.461 219.688 133.461 234.16C133.461 250.799 123.232 254.779 101.952 261.524C75.438 269.928 39.126 281.438 39.126 341.62V355.944C22.223 355.984 8.483 369.746 8.483 386.66C8.483 389.421 8.857 392.157 9.586 394.795C3.541 400.521 2.34158e-07 408.516 2.34158e-07 417.064C-0.000999766 425.244 3.201 432.951 9.018 438.767C14.832 444.581 22.539 447.784 30.716 447.784H145.817C150.788 447.784 154.817 443.755 154.817 438.784C154.817 433.813 150.788 429.784 145.817 429.784H30.716C27.346 429.784 24.16 428.454 21.744 426.039C19.329 423.624 17.999 420.438 18 417.066C18 414.422 18.826 411.902 20.296 409.806H136.248C141.219 409.806 145.248 405.777 145.248 400.806C145.248 395.835 141.219 391.806 136.248 391.806H27.588C26.865 390.192 26.484 388.441 26.484 386.663C26.484 379.65 32.188 373.945 39.2 373.945L145.817 373.946C150.787 373.946 154.817 369.916 154.817 364.946C154.817 359.976 150.788 355.946 145.817 355.946L57.127 355.945V341.623C57.127 294.618 81.543 286.879 107.392 278.685C128.049 272.137 151.462 264.716 151.462 234.162C151.462 209.765 131.612 189.916 107.214 189.916C99.108 189.916 91.175 192.132 84.272 196.325C81.584 197.957 79.944 200.873 79.944 204.017C79.944 216.217 75.938 219.199 69 219.992H43.631V209.09H47.471C52.442 209.09 56.471 205.061 56.471 200.09C56.471 195.119 52.442 191.09 47.471 191.09H43.631V175.978C64.423 144.524 92.719 121.737 121.589 113.28C126.296 111.901 129.032 107.007 127.741 102.275L125.52 94.1289L167.758 113.178C168.104 113.359 168.461 113.518 168.829 113.653C200.95 125.446 219.371 162.677 219.371 215.799ZM130.496 146.061C125.525 146.061 121.496 150.09 121.496 155.061C121.496 160.032 125.525 164.061 130.496 164.061H132.508C137.479 164.061 141.508 160.032 141.508 155.061C141.508 150.09 137.479 146.061 132.508 146.061H130.496ZM295.101 345.846V428.728C295.101 439.235 286.551 447.783 276.042 447.783H193.161C182.653 447.783 174.104 439.235 174.104 428.728V345.846C174.104 335.338 182.653 326.789 193.161 326.789H276.042C286.551 326.789 295.101 335.337 295.101 345.846ZM277.101 345.846C277.101 345.283 276.606 344.789 276.042 344.789H193.161C192.598 344.789 192.104 345.283 192.104 345.846V428.728C192.104 429.29 192.598 429.783 193.161 429.783H276.042C276.605 429.783 277.101 429.29 277.101 428.728V345.846ZM251.314 362.027H249.333C244.362 362.027 240.333 366.056 240.333 371.027C240.333 375.998 244.362 380.027 249.333 380.027H251.314C256.285 380.027 260.314 375.998 260.314 371.027C260.314 366.056 256.285 362.027 251.314 362.027ZM251.313 394.543H249.332C244.361 394.543 240.332 398.572 240.332 403.543C240.332 408.514 244.361 412.543 249.332 412.543H251.313C256.284 412.543 260.313 408.514 260.313 403.543C260.313 398.572 256.283 394.543 251.313 394.543ZM219.874 362.027H217.893C212.922 362.027 208.893 366.056 208.893 371.027C208.893 375.998 212.922 380.027 217.893 380.027H219.874C224.845 380.027 228.874 375.998 228.874 371.027C228.874 366.056 224.845 362.027 219.874 362.027ZM219.873 394.543H217.892C212.921 394.543 208.892 398.572 208.892 403.543C208.892 408.514 212.921 412.543 217.892 412.543H219.873C224.844 412.543 228.873 408.514 228.873 403.543C228.873 398.572 224.844 394.543 219.873 394.543Z" fill="black"/>
</g>
<defs>
<clipPath id="clip0_102_135">
<rect width="451.816" height="451.816" fill="white"/>
</clipPath>
</defs>
</svg>
