<svg width="512" height="512" viewBox="0 0 512 512" fill="none" xmlns="http://www.w3.org/2000/svg">
<g clip-path="url(#clip0_102_152)">
<path d="M499.801 62.547H469.084V51.116C469.084 45.483 464.518 40.917 458.885 40.917H49.115C43.482 40.917 38.916 45.483 38.916 51.116V62.547H8.199C2.566 62.547 -2 67.113 -2 72.746V439.253C-2 444.886 2.566 449.452 8.199 449.452H38.916V460.883C38.916 466.516 43.482 471.082 49.115 471.082H458.884C464.517 471.082 469.083 466.516 469.083 460.883V449.452H499.8C505.433 449.452 509.999 444.886 509.999 439.253V72.746C510 67.113 505.434 62.547 499.801 62.547ZM38.916 429.054H18.398V429.053V82.946H38.916V429.054ZM448.685 450.684H59.315V61.315H448.686V450.684H448.685ZM489.602 429.053H469.084V82.946H489.602V429.053Z" fill="black"/>
<path d="M422.543 316.467V108.099C422.543 105.15 421.267 102.346 419.044 100.409C416.821 98.4721 413.868 97.5951 410.947 97.9961L215.594 125.017C210.55 125.715 206.792 130.027 206.792 135.12V305.609C201.372 301.796 195.039 298.856 187.935 296.955C171.869 292.656 153.662 294.166 136.669 301.205C119.676 308.243 105.735 320.05 97.4131 334.45C88.5841 349.727 87.0171 366.097 93.0001 380.543C98.9831 394.989 111.667 405.456 128.714 410.016C134.713 411.621 141.009 412.416 147.431 412.416C158.206 412.416 169.333 410.176 179.981 405.765C196.974 398.727 210.915 386.92 219.237 372.52C224.821 362.858 227.491 352.76 227.192 342.987V190.407L402.146 166.208V279.08C396.726 275.267 390.393 272.326 383.288 270.426C367.222 266.127 349.015 267.637 332.022 274.676C315.029 281.714 301.088 293.521 292.766 307.921C283.937 323.198 282.37 339.568 288.353 354.014C294.336 368.46 307.02 378.927 324.067 383.487C330.066 385.092 336.362 385.887 342.784 385.887C353.559 385.887 364.686 383.647 375.334 379.236C392.327 372.198 406.268 360.391 414.59 345.991C420.168 336.332 422.839 326.237 422.543 316.467ZM201.574 362.314C195.485 372.851 185.043 381.588 172.173 386.92C163.761 390.405 155.197 392.06 147.214 392.059C130.876 392.058 116.975 385.121 111.845 372.738C108.345 364.288 109.491 354.315 115.073 344.658C121.162 334.121 131.604 325.384 144.474 320.052C152.886 316.567 161.45 314.913 169.433 314.913C185.771 314.913 199.672 321.851 204.802 334.234C208.302 342.684 207.156 352.656 201.574 362.314ZM396.927 335.785C390.838 346.322 380.396 355.059 367.526 360.391C341.899 371.007 314.835 364.644 307.199 346.209C303.699 337.759 304.845 327.786 310.427 318.128C316.516 307.591 326.958 298.854 339.828 293.522C365.457 282.907 392.519 289.269 400.155 307.704C403.655 316.153 402.508 326.126 396.927 335.785ZM402.144 145.616L227.19 169.816V144.006L402.144 119.806V145.616Z" fill="black"/>
<path d="M86.6929 126.47C81.0599 126.47 76.4939 131.036 76.4939 136.669V270.279C76.4939 275.912 81.0599 280.478 86.6929 280.478C92.3259 280.478 96.8919 275.912 96.8919 270.279V136.669C96.8919 131.036 92.3259 126.47 86.6929 126.47Z" fill="black"/>
<path d="M86.6929 76.4939C81.0599 76.4939 76.4939 81.0599 76.4939 86.6929V100.972C76.4939 106.605 81.0599 111.171 86.6929 111.171C92.3259 111.171 96.8919 106.605 96.8919 100.972V86.6929C96.8919 81.0599 92.3259 76.4939 86.6929 76.4939Z" fill="black"/>
</g>
<defs>
<clipPath id="clip0_102_152">
<rect width="512" height="512" fill="white"/>
</clipPath>
</defs>
</svg>
