<svg width="538" height="538" viewBox="0 0 538 538" fill="none" xmlns="http://www.w3.org/2000/svg">
<path d="M476.577 60.5249H61.4208C27.551 60.5249 0 88.0786 0 121.946V416.051C0 449.919 27.5537 477.472 61.4208 477.472H476.577C510.444 477.472 538 449.919 538 416.051V121.946C538 88.0786 510.444 60.5249 476.577 60.5249ZM269 445.195H61.4208C45.3534 445.195 32.28 432.124 32.28 416.054V121.946C32.28 105.876 45.3534 92.8049 61.4208 92.8049H269V445.195ZM491.14 204.787C489.669 229.387 475.893 278.119 435.003 311.97C447.417 314.719 460.905 316.201 475.137 316.201V348.481C446.755 348.481 420.697 343.319 398.556 334.157C377.872 343.037 352.909 348.481 322.9 348.481V316.201C336.705 316.201 349.595 314.854 361.544 312.172C338.916 293.299 325.546 268.295 325.546 240.133H357.824C357.824 263.959 373.049 284.564 397.862 298.299C410.346 291.144 421.27 281.858 430.583 270.455C445.722 251.932 453.453 231.394 456.821 216.542H322.9V184.262H382.878V152.02H415.158V184.265H471.796C477.139 184.265 482.293 186.5 485.94 190.398C489.542 194.215 491.455 199.477 491.14 204.787Z" fill="black"/>
<path d="M115.764 318.125L103.794 348.409H60.8317L131.727 184.077H174.689L243.945 348.409H199.337L187.601 318.125H115.764ZM151.918 225.626L127.971 286.431H175.393L151.918 225.626Z" fill="black"/>
</svg>
