<svg width="455" height="455" viewBox="0 0 455 455" fill="none" xmlns="http://www.w3.org/2000/svg">
<path d="M96.97 0.933105C106.376 0.933105 114.001 8.55834 114.001 17.9644V25.0918C159.158 33.1533 193.437 72.6217 193.437 120.096V142.835C193.437 152.241 185.812 159.866 176.406 159.866C166.999 159.866 159.374 152.241 159.374 142.835V120.096C159.374 91.5273 140.19 67.4392 114.001 60.0116V217.293L132.846 226.48C169.918 244.556 193.437 282.189 193.437 323.434V335.34C193.437 382.789 159.185 422.276 114.001 430.344V437.961C114.001 447.367 106.376 454.992 96.97 454.992C87.5639 454.992 79.9387 447.367 79.9387 437.961V430.36C34.7659 422.34 0.416626 382.87 0.416626 335.34V313.067C0.416626 303.662 8.04186 296.036 17.4479 296.036C26.8539 296.036 34.4791 303.662 34.4791 313.067V335.34C34.4791 363.954 53.7192 388.055 79.9387 395.451V238.579L61.0079 229.349C23.9356 211.273 0.416626 173.639 0.416626 132.395V120.096C0.416626 72.5913 34.7391 33.1029 79.9387 25.0764V17.9644C79.9387 8.55834 87.5639 0.933105 96.97 0.933105ZM397.812 23.586C414.078 23.586 432.309 28.1209 446.924 37.7499C454.776 42.9254 456.949 53.4879 451.774 61.3423C446.599 69.1966 436.035 71.3682 428.18 66.193C419.91 60.7423 408.413 57.6485 397.812 57.6485C368.873 57.6485 340.901 74.4584 319.455 105.227C306.309 124.09 296.038 147.719 290.07 174.423L288.41 182.525L323.988 182.544C333.396 182.549 341.017 190.179 341.01 199.585C341.006 208.207 334.594 215.329 326.281 216.452L323.969 216.607L284.523 216.586C284.355 220.342 284.271 224.135 284.271 227.961L284.334 233.665L284.523 239.317H323.979C333.387 239.317 341.01 246.941 341.01 256.349C341.01 264.971 334.604 272.097 326.29 273.224L323.979 273.38H288.406C294.008 303.419 304.992 329.942 319.455 350.695C340.901 381.463 368.873 398.274 397.812 398.274C407.503 398.274 417.317 396.133 424.838 391.967L427.915 390.058C435.635 384.687 446.249 386.592 451.622 394.313C456.993 402.034 455.087 412.648 447.367 418.021C432.272 428.521 413.604 432.336 397.812 432.336C354.639 432.336 317.325 407.207 291.51 370.172C274.427 345.66 261.886 315.368 255.344 281.829L253.835 273.378H221.827C212.422 273.378 204.796 265.752 204.796 256.346C204.796 247.724 211.204 240.598 219.516 239.471L221.827 239.315H250.431C250.283 235.555 250.208 231.769 250.208 227.961L250.264 222.246L250.433 216.566L221.818 216.55C212.413 216.546 204.792 208.916 204.796 199.51C204.8 190.888 211.212 183.766 219.525 182.643L221.836 182.489L253.839 182.506C259.837 145.622 273.01 112.297 291.51 85.7505C317.325 48.7144 354.639 23.586 397.812 23.586ZM114.001 255.188V395.424C138.894 388.365 157.44 366.264 159.232 339.588L159.375 335.34V323.434C159.375 296.782 145.021 272.334 122.058 259.281L117.917 257.098L114.001 255.188ZM79.9387 59.987C55.0172 67.0161 36.4193 89.1268 34.6218 115.841L34.4791 120.096V132.395C34.4791 159.047 48.8328 183.495 71.7959 196.548L75.9364 198.731L79.9387 200.684V59.987Z" fill="#212121"/>
</svg>
